<svg width="368" height="368" xmlns="http://www.w3.org/2000/svg">

 <g>
  <title>background</title>
  <rect fill="none" id="canvas_background" height="602" width="802" y="-1" x="-1"/>
 </g>
 <g>
  <title>Layer 1</title>
  <g id="svg_1">
   <g id="svg_2">
    <g id="svg_3">
     <path fill="#ff960c" id="svg_4" d="m184,0c-101.456,0 -184,82.544 -184,184s82.544,184 184,184s184,-82.544 184,-184s-82.544,-184 -184,-184zm0,352c-92.64,0 -168,-75.36 -168,-168s75.36,-168 168,-168s168,75.36 168,168s-75.36,168 -168,168z"/>
     <path fill="#ff960c" id="svg_5" d="m120,176c13.232,0 24,-10.768 24,-24s-10.768,-24 -24,-24s-24,10.768 -24,24s10.768,24 24,24zm0,-32c4.408,0 8,3.592 8,8s-3.592,8 -8,8s-8,-3.592 -8,-8s3.592,-8 8,-8z"/>
     <path fill="#ff960c" id="svg_6" d="m248,128c-13.232,0 -24,10.768 -24,24s10.768,24 24,24s24,-10.768 24,-24s-10.768,-24 -24,-24zm0,32c-4.408,0 -8,-3.592 -8,-8s3.592,-8 8,-8c4.408,0 8,3.592 8,8s-3.592,8 -8,8z"/>
     <path fill="#ff960c" id="svg_7" d="m264,224l-160,0c-4.416,0 -8,3.584 -8,8c0,4.416 3.584,8 8,8l160,0c4.416,0 8,-3.584 8,-8c0,-4.416 -3.584,-8 -8,-8z"/>
    </g>
   </g>
  </g>
  <g id="svg_8"/>
  <g id="svg_9"/>
  <g id="svg_10"/>
  <g id="svg_11"/>
  <g id="svg_12"/>
  <g id="svg_13"/>
  <g id="svg_14"/>
  <g id="svg_15"/>
  <g id="svg_16"/>
  <g id="svg_17"/>
  <g id="svg_18"/>
  <g id="svg_19"/>
  <g id="svg_20"/>
  <g id="svg_21"/>
  <g id="svg_22"/>
 </g>
</svg>