<svg width="64" height="64" viewBox="0 0 64 64" fill="none" xmlns="http://www.w3.org/2000/svg">
<path d="M32 0C14.3555 0 0 14.3555 0 32C0 49.6445 14.3555 64 32 64C49.6459 64 64 49.6445 64 32C64 14.3555 49.6459 0 32 0ZM32 61.2174C15.8887 61.2174 2.78261 48.1113 2.78261 32C2.78261 15.8887 15.8887 2.78261 32 2.78261C48.1099 2.78261 61.2174 15.8887 61.2174 32C61.2174 48.1113 48.1099 61.2174 32 61.2174Z" fill="#FF2121"/>
<path d="M25.0435 26.4348C25.0435 24.1336 23.1708 22.2609 20.8696 22.2609C18.5684 22.2609 16.6957 24.1336 16.6957 26.4348C16.6957 28.736 18.5684 30.6087 20.8696 30.6087C23.1708 30.6087 25.0435 28.736 25.0435 26.4348ZM19.4783 26.4348C19.4783 25.6682 20.103 25.0435 20.8696 25.0435C21.6362 25.0435 22.2609 25.6682 22.2609 26.4348C22.2609 27.2014 21.6362 27.8261 20.8696 27.8261C20.103 27.8261 19.4783 27.2014 19.4783 26.4348Z" fill="#FF2121"/>
<path d="M43.1304 22.2609C40.8292 22.2609 38.9565 24.1336 38.9565 26.4348C38.9565 28.736 40.8292 30.6087 43.1304 30.6087C45.4317 30.6087 47.3044 28.736 47.3044 26.4348C47.3044 24.1336 45.4317 22.2609 43.1304 22.2609ZM43.1304 27.8261C42.3624 27.8261 41.7391 27.2014 41.7391 26.4348C41.7391 25.6682 42.3624 25.0435 43.1304 25.0435C43.8984 25.0435 44.5217 25.6682 44.5217 26.4348C44.5217 27.2014 43.8984 27.8261 43.1304 27.8261Z" fill="#FF2121"/>
<path d="M32 38.9565C26.8133 38.9565 21.8713 41.1534 18.4418 44.985C17.9298 45.5583 17.9785 46.4376 18.5503 46.9496C19.1235 47.4629 20.0028 47.4129 20.5148 46.841C23.4171 43.5979 27.6035 41.7391 32 41.7391C36.3966 41.7391 40.583 43.5979 43.4852 46.841C43.7593 47.1485 44.1406 47.3043 44.5218 47.3043C44.8515 47.3043 45.1854 47.1875 45.4498 46.9496C46.0216 46.4376 46.0703 45.5583 45.5583 44.985C42.1287 41.1548 37.1882 38.9565 32 38.9565Z" fill="#FF2121"/>
</svg>
