<svg width="368" height="368" xmlns="http://www.w3.org/2000/svg">

 <g>
  <title>background</title>
  <rect fill="none" id="canvas_background" height="602" width="802" y="-1" x="-1"/>
 </g>
 <g>
  <title>Layer 1</title>
  <g id="svg_1">
   <g id="svg_2">
    <g id="svg_3">
     <path fill="#ff2121" id="svg_4" d="m184,0c-101.456,0 -184,82.544 -184,184s82.544,184 184,184c101.464,0 184,-82.544 184,-184s-82.536,-184 -184,-184zm0,352c-92.64,0 -168,-75.36 -168,-168s75.36,-168 168,-168c92.632,0 168,75.36 168,168s-75.368,168 -168,168z"/>
     <path fill="#ff2121" id="svg_5" d="m144,152c0,-13.232 -10.768,-24 -24,-24s-24,10.768 -24,24s10.768,24 24,24s24,-10.768 24,-24zm-32,0c0,-4.408 3.592,-8 8,-8s8,3.592 8,8s-3.592,8 -8,8s-8,-3.592 -8,-8z"/>
     <path fill="#ff2121" id="svg_6" d="m248,128c-13.232,0 -24,10.768 -24,24s10.768,24 24,24s24,-10.768 24,-24s-10.768,-24 -24,-24zm0,32c-4.416,0 -8,-3.592 -8,-8s3.584,-8 8,-8c4.416,0 8,3.592 8,8s-3.584,8 -8,8z"/>
     <path fill="#ff2121" id="svg_7" d="m184,224c-29.824,0 -58.24,12.632 -77.96,34.664c-2.944,3.296 -2.664,8.352 0.624,11.296c3.296,2.952 8.352,2.664 11.296,-0.624c16.688,-18.648 40.76,-29.336 66.04,-29.336c25.28,0 49.352,10.688 66.04,29.336c1.576,1.768 3.768,2.664 5.96,2.664c1.896,0 3.816,-0.672 5.336,-2.04c3.288,-2.944 3.568,-8 0.624,-11.296c-19.72,-22.024 -48.128,-34.664 -77.96,-34.664z"/>
    </g>
   </g>
  </g>
  <g id="svg_8"/>
  <g id="svg_9"/>
  <g id="svg_10"/>
  <g id="svg_11"/>
  <g id="svg_12"/>
  <g id="svg_13"/>
  <g id="svg_14"/>
  <g id="svg_15"/>
  <g id="svg_16"/>
  <g id="svg_17"/>
  <g id="svg_18"/>
  <g id="svg_19"/>
  <g id="svg_20"/>
  <g id="svg_21"/>
  <g id="svg_22"/>
 </g>
</svg>
